# xmcd
#
# Track frame offsets:
#	150
#	14347
#	19708
#	29310
#	34357
#	44562
#	54874
#	58290
#	61472
#	67163
#	71758
#	80817
#	91829
#	108457
#	126010
#	148228
#	161774
#	175311
#	189842
#	204075
#	217174
#	230848
#	244515
#	257397
#	271133
#	285213
#	299169
#	313068
#
# Disc length: 4336 seconds
#
# Revision: 1
# Processed by: cddbd v1.5.2PL0 Copyright (c) Steve Scherf et al.
# Submitted via: audiograbber 1.83.01
#
DISCID=ab10ee1c
DTITLE=Leadbelly - The Remaining ARC and Library Of Congress Recordings Vol. 1 
DTITLE=1934-1935
DYEAR=1997
DGENRE=Blues
TTITLE0=Irene (124-A-1)
TTITLE1=Irene (124-B-1)
TTITLE2=Julie Ann Johnson 126-A-1)
TTITLE3=You Cain' Loose-A-Me Cholly (126-A-2)
TTITLE4=Take A Whiff On Me (126-A-3)
TTITLE5=Mr. Tom Hughes' Town (236-B-3)
TTITLE6=Julie Ann Johnson (239-A-3)
TTITLE7=Julie Ann Johnson (240-A-4)
TTITLE8=Julie Ann Johnson (242-B-3)
TTITLE9=Boll Weevil (273-A-1)
TTITLE10=Julie Ann Johnson (250-B-2)
TTITLE11=Dance Calls (Sloan Wright, vcl) (252-A-1)
TTITLE12=Salty Dog (45-B)
TTITLE13=Thirty Days In The Workhouse (53-B)
TTITLE14=Ella Speed (54-A)
TTITLE15=C. C. Rider
TTITLE16=You Can't Lose Me, Charlie
TTITLE17=New Black Snake Moan
TTITLE18=Alberta
TTITLE19=Baby, Don't You Love Me No More ?
TTITLE20=Death Letter Blues, Part 1 (Take 1)
TTITLE21=Death Letter Blues, Part 2 (Take 1)
TTITLE22=Kansas City Papa (Take 1)
TTITLE23=Red River Blues
TTITLE24=My Friend Blind Lemon
TTITLE25=Mr. Tom Hughes' Town
TTITLE26=Matchbox Blues
TTITLE27=Bull Cow
EXTD=
EXTT0=
EXTT1=
EXTT2=
EXTT3=
EXTT4=
EXTT5=
EXTT6=
EXTT7=
EXTT8=
EXTT9=
EXTT10=
EXTT11=
EXTT12=
EXTT13=
EXTT14=
EXTT15=
EXTT16=
EXTT17=
EXTT18=
EXTT19=
EXTT20=
EXTT21=
EXTT22=
EXTT23=
EXTT24=
EXTT25=
EXTT26=
EXTT27=
PLAYORDER=
